<svg xmlns="http://www.w3.org/2000/svg" viewBox="0 0 24 24" fill="none" width="24" height="24">
  <circle cx="12" cy="12" r="12" fill="#181717"/>
  <path d="M12 6.3C8.1 6.3 5 9.4 5 13.3C5 16.1 6.8 18.3 9.3 18.9C9.7 19 9.9 18.8 9.9 18.6V17.5C7.8 17.9 7.4 16.7 7.4 16.7C7.1 16 6.6 15.8 6.6 15.8C5.9 15.3 6.7 15.3 6.7 15.3C7.5 15.4 7.9 16.2 7.9 16.2C8.6 17.4 9.8 17.1 10.3 16.9C10.4 16.3 10.7 15.9 11 15.7C9.2 15.5 7.3 14.8 7.3 12.2C7.3 11.4 7.6 10.7 8.1 10.1C8 9.9 7.7 9 8.2 7.8C8.2 7.8 8.9 7.6 9.9 8.3C10.6 8.1 11.3 8 12 8C12.7 8 13.4 8.1 14.1 8.3C15.1 7.6 15.8 7.8 15.8 7.8C16.3 9 16 9.9 15.9 10.1C16.4 10.7 16.7 11.4 16.7 12.2C16.7 14.8 14.8 15.5 13 15.7C13.3 15.9 13.6 16.3 13.6 16.9V18.6C13.6 18.8 13.8 19 14.2 18.9C16.7 18.3 18.5 16.1 18.5 13.3C18.5 9.4 15.4 6.3 12 6.3Z" fill="#fff"/>
</svg> 